# xmcd
#
# Track frame offsets: 
#        150
#        34405
#        38651
#        60683
#        99580
#        119008
#        155534
#        186030
#        203350
#
# Disc length: 3171 seconds
#
# Revision: 0
# Processed by: cddbd v1.5.2PL0 Copyright (c) Steve Scherf et al.
# Submitted via: ExactAudioCopy v1.0b1
#
DISCID=750c6109
DTITLE=Albert King - Thursday Night In San Francisco
DYEAR=1968
DGENRE=Modern Electric Blues
TTITLE0=San-Ho-Zay
TTITLE1=You Upset Me, Baby
TTITLE2=Call It Stormy Monday
TTITLE3=Everyday I Have The Blues
TTITLE4=Drifting Blues
TTITLE5=I've Made Nights By Myself
TTITLE6=Crosscut Saw
TTITLE7=I'm Gonna Move To The Outskirts Of Town
TTITLE8=Ooh-Ee-Baby
EXTD=
EXTT0=
EXTT1=
EXTT2=
EXTT3=
EXTT4=
EXTT5=
EXTT6=
EXTT7=
EXTT8=
PLAYORDER=
